<?xml version="1.0" standalone="no"?>
<!DOCTYPE svg PUBLIC "-//W3C//DTD SVG 20010904//EN"
 "http://www.w3.org/TR/2001/REC-SVG-20010904/DTD/svg10.dtd">
<svg version="1.0" xmlns="http://www.w3.org/2000/svg"
 width="480.000000pt" height="480.000000pt" viewBox="0 0 480.000000 480.000000"
 preserveAspectRatio="xMidYMid meet">
<metadata>
Created by potrace 1.14, written by Peter Selinger 2001-2017
</metadata>
<g transform="translate(0.000000,480.000000) scale(0.100000,-0.100000)"
fill="#000000" stroke="none">
<path d="M1440 3254 c-310 -42 -500 -224 -500 -480 0 -255 129 -405 489 -569
200 -91 273 -141 314 -219 18 -34 22 -57 22 -136 0 -107 -16 -149 -77 -206
-114 -108 -340 -121 -479 -30 -47 32 -98 109 -155 239 l-47 107 -37 0 -37 0
-6 -122 c-4 -66 -7 -148 -7 -180 l0 -59 65 -30 c117 -53 252 -81 420 -86 164
-6 261 7 368 47 143 54 258 170 298 301 28 92 24 255 -9 339 -55 139 -192 247
-466 365 -145 63 -195 92 -254 149 -63 60 -84 107 -90 199 -6 99 13 150 74
207 74 68 122 85 239 84 163 0 188 -20 293 -231 l67 -133 37 0 c36 0 37 1 42
43 3 23 8 95 12 159 l6 117 -71 35 c-114 58 -228 86 -361 91 -63 2 -131 1
-150 -1z"/>
<path d="M2210 3186 c0 -18 9 -27 43 -40 24 -9 55 -28 68 -42 l24 -26 0 -713
0 -713 -24 -26 c-13 -14 -42 -31 -65 -39 -33 -11 -42 -19 -44 -40 l-3 -27 320
0 321 0 0 25 c0 20 -9 28 -50 46 -81 35 -80 28 -80 419 l0 340 321 0 320 0 -3
-344 c-3 -331 -4 -346 -24 -373 -11 -15 -40 -35 -62 -43 -36 -12 -42 -19 -42
-42 l0 -28 315 0 315 0 0 30 c0 20 -5 30 -15 30 -27 0 -94 39 -107 63 -10 17
-13 171 -13 724 0 697 0 702 21 730 12 15 41 35 65 44 35 13 45 22 47 43 l3
26 -315 0 -316 0 0 -25 c0 -19 9 -28 44 -44 81 -35 81 -32 84 -393 l3 -318
-320 0 -321 0 0 318 c0 380 -3 369 113 406 10 3 17 15 17 31 l0 25 -320 0
-320 0 0 -24z"/>
</g>
</svg>
